<svg xmlns="http://www.w3.org/2000/svg" xmlns:xlink="http://www.w3.org/1999/xlink" zoomAndPan="magnify" preserveAspectRatio="xMidYMid meet" version="1.0" viewBox="81 271.49 1271.32 267.02"><defs><g/><clipPath id="2c041e64c4"><path d="M 81 271.492188 L 348.011719 271.492188 L 348.011719 538.507812 L 81 538.507812 Z M 81 271.492188 " clip-rule="nonzero"/></clipPath><clipPath id="e20f49495c"><path d="M 348.011719 301.492188 L 348.011719 508.507812 C 348.011719 525.074219 334.582031 538.507812 318.011719 538.507812 L 111 538.507812 C 94.429688 538.507812 81 525.074219 81 508.507812 L 81 301.492188 C 81 284.925781 94.429688 271.492188 111 271.492188 L 318.011719 271.492188 C 334.582031 271.492188 348.011719 284.925781 348.011719 301.492188 Z M 348.011719 301.492188 " clip-rule="nonzero"/></clipPath><clipPath id="6846da8e18"><path d="M 0 0.492188 L 267.011719 0.492188 L 267.011719 267.507812 L 0 267.507812 Z M 0 0.492188 " clip-rule="nonzero"/></clipPath><clipPath id="632128e688"><path d="M 267.011719 30.492188 L 267.011719 237.507812 C 267.011719 254.074219 253.582031 267.507812 237.011719 267.507812 L 30 267.507812 C 13.429688 267.507812 0 254.074219 0 237.507812 L 0 30.492188 C 0 13.925781 13.429688 0.492188 30 0.492188 L 237.011719 0.492188 C 253.582031 0.492188 267.011719 13.925781 267.011719 30.492188 Z M 267.011719 30.492188 " clip-rule="nonzero"/></clipPath><clipPath id="e07bef360e"><rect x="0" width="268" y="0" height="268"/></clipPath><clipPath id="8cfe7ecb07"><rect x="0" width="149" y="0" height="270"/></clipPath><clipPath id="aefd357316"><path d="M 309.78125 367.371094 L 348.015625 367.371094 L 348.015625 442.496094 L 309.78125 442.496094 Z M 309.78125 367.371094 " clip-rule="nonzero"/></clipPath><clipPath id="0c4e267b4e"><path d="M 348.015625 367.496094 C 327.191406 367.496094 309.78125 384.570312 309.78125 404.996094 C 309.78125 425.421875 327.191406 442.496094 348.015625 442.496094 Z M 348.015625 367.496094 " clip-rule="nonzero"/></clipPath><clipPath id="2c9ea10038"><path d="M 0.78125 0.441406 L 39.015625 0.441406 L 39.015625 75.496094 L 0.78125 75.496094 Z M 0.78125 0.441406 " clip-rule="nonzero"/></clipPath><clipPath id="04626d7887"><path d="M 39.015625 0.496094 C 18.191406 0.496094 0.78125 17.570312 0.78125 37.996094 C 0.78125 58.421875 18.191406 75.496094 39.015625 75.496094 Z M 39.015625 0.496094 " clip-rule="nonzero"/></clipPath><clipPath id="02221f4ab7"><rect x="0" width="40" y="0" height="76"/></clipPath><clipPath id="aff9bed0fa"><path d="M 80.996094 367.496094 L 119.230469 367.496094 L 119.230469 442.621094 L 80.996094 442.621094 Z M 80.996094 367.496094 " clip-rule="nonzero"/></clipPath><clipPath id="42b9d31890"><path d="M 80.996094 442.496094 C 101.820312 442.496094 119.230469 425.421875 119.230469 404.996094 C 119.230469 384.570312 101.820312 367.496094 80.996094 367.496094 Z M 80.996094 442.496094 " clip-rule="nonzero"/></clipPath><clipPath id="313c108dfd"><path d="M 0.996094 0.496094 L 39.230469 0.496094 L 39.230469 75.558594 L 0.996094 75.558594 Z M 0.996094 0.496094 " clip-rule="nonzero"/></clipPath><clipPath id="8ac49d476b"><path d="M 0.996094 75.496094 C 21.820312 75.496094 39.230469 58.421875 39.230469 37.996094 C 39.230469 17.570312 21.820312 0.496094 0.996094 0.496094 Z M 0.996094 75.496094 " clip-rule="nonzero"/></clipPath><clipPath id="a1db2e6207"><rect x="0" width="40" y="0" height="76"/></clipPath></defs><g clip-path="url(#2c041e64c4)"><g clip-path="url(#e20f49495c)"><g transform="matrix(1, 0, 0, 1, 81, 271)"><g clip-path="url(#e07bef360e)"><g clip-path="url(#6846da8e18)"><g clip-path="url(#632128e688)"><path fill="#ffffff" d="M 0 0.492188 L 267.011719 0.492188 L 267.011719 267.507812 L 0 267.507812 Z M 0 0.492188 " fill-opacity="1" fill-rule="nonzero"/></g></g></g></g></g></g><g transform="matrix(1, 0, 0, 1, 140, 270)"><g clip-path="url(#8cfe7ecb07)"><g fill="#04448c" fill-opacity="1"><g transform="translate(0.931327, 215.975322)"><g><path d="M 7.390625 -134.1875 L 7.390625 -162.03125 L 139.625 -162.03125 L 139.625 -134.1875 L 90.25 -134.1875 L 90.25 0 L 56.984375 0 L 56.984375 -134.1875 Z M 7.390625 -134.1875 "/></g></g></g></g></g><g fill="#ffffff" fill-opacity="1"><g transform="translate(419.003889, 470.249996)"><g><path d="M 5.984375 -108.453125 L 5.984375 -130.953125 L 112.859375 -130.953125 L 112.859375 -108.453125 L 72.953125 -108.453125 L 72.953125 0 L 46.0625 0 L 46.0625 -108.453125 Z M 5.984375 -108.453125 "/></g></g><g transform="translate(537.919899, 470.249996)"><g><path d="M 10.8125 0 L 10.8125 -97.03125 L 37 -97.03125 L 37 0 Z M 23.90625 -109.59375 C 19.863281 -109.59375 16.421875 -110.910156 13.578125 -113.546875 C 10.734375 -116.191406 9.3125 -119.414062 9.3125 -123.21875 C 9.3125 -127.03125 10.734375 -130.253906 13.578125 -132.890625 C 16.421875 -135.523438 19.863281 -136.84375 23.90625 -136.84375 C 27.945312 -136.84375 31.375 -135.523438 34.1875 -132.890625 C 37 -130.253906 38.40625 -127.03125 38.40625 -123.21875 C 38.40625 -119.414062 37 -116.191406 34.1875 -113.546875 C 31.375 -110.910156 27.945312 -109.59375 23.90625 -109.59375 Z M 23.90625 -109.59375 "/></g></g><g transform="translate(585.732396, 470.249996)"><g><path d="M 54.40625 1.9375 C 44.675781 1.9375 36.238281 -0.15625 29.09375 -4.34375 C 21.945312 -8.539062 16.425781 -14.398438 12.53125 -21.921875 C 8.632812 -29.453125 6.6875 -38.203125 6.6875 -48.171875 C 6.6875 -58.179688 8.632812 -66.96875 12.53125 -74.53125 C 16.425781 -82.09375 21.945312 -87.96875 29.09375 -92.15625 C 36.238281 -96.34375 44.675781 -98.4375 54.40625 -98.4375 C 60.320312 -98.4375 65.753906 -97.660156 70.703125 -96.109375 C 75.660156 -94.554688 80.039062 -92.3125 83.84375 -89.375 C 87.65625 -86.445312 90.773438 -82.914062 93.203125 -78.78125 C 95.640625 -74.65625 97.269531 -70.015625 98.09375 -64.859375 L 73.484375 -61.34375 C 72.953125 -63.863281 72.15625 -66.117188 71.09375 -68.109375 C 70.039062 -70.109375 68.722656 -71.820312 67.140625 -73.25 C 65.566406 -74.6875 63.738281 -75.785156 61.65625 -76.546875 C 59.570312 -77.316406 57.242188 -77.703125 54.671875 -77.703125 C 50.035156 -77.703125 46.148438 -76.46875 43.015625 -74 C 39.890625 -71.539062 37.503906 -68.097656 35.859375 -63.671875 C 34.222656 -59.253906 33.40625 -54.113281 33.40625 -48.25 C 33.40625 -42.445312 34.222656 -37.332031 35.859375 -32.90625 C 37.503906 -28.488281 39.890625 -25.035156 43.015625 -22.546875 C 46.148438 -20.054688 50.035156 -18.8125 54.671875 -18.8125 C 57.242188 -18.8125 59.570312 -19.207031 61.65625 -20 C 63.738281 -20.789062 65.582031 -21.914062 67.1875 -23.375 C 68.800781 -24.84375 70.148438 -26.613281 71.234375 -28.6875 C 72.316406 -30.769531 73.09375 -33.128906 73.5625 -35.765625 L 98.171875 -32.171875 C 97.410156 -26.953125 95.8125 -22.257812 93.375 -18.09375 C 90.945312 -13.9375 87.828125 -10.347656 84.015625 -7.328125 C 80.210938 -4.316406 75.804688 -2.019531 70.796875 -0.4375 C 65.785156 1.144531 60.320312 1.9375 54.40625 1.9375 Z M 54.40625 1.9375 "/></g></g><g transform="translate(690.322235, 470.249996)"><g><path d="M 34.546875 -28.296875 L 34.546875 -59.765625 L 38.328125 -59.765625 L 70.484375 -97.03125 L 100.984375 -97.03125 L 58.625 -48.34375 L 52.46875 -48.34375 Z M 10.8125 0 L 10.8125 -130.953125 L 37 -130.953125 L 37 0 Z M 71.984375 0 L 42.546875 -42.453125 L 60.03125 -61.078125 L 102.828125 0 Z M 71.984375 0 "/></g></g></g><g fill="#ffffff" fill-opacity="1"><g transform="translate(789.462853, 470.249996)"><g><path d="M 54.75 1.9375 C 44.851562 1.9375 36.316406 -0.113281 29.140625 -4.21875 C 21.960938 -8.320312 16.425781 -14.125 12.53125 -21.625 C 8.632812 -29.125 6.6875 -37.941406 6.6875 -48.078125 C 6.6875 -58.097656 8.617188 -66.867188 12.484375 -74.390625 C 16.347656 -81.921875 21.796875 -87.8125 28.828125 -92.0625 C 35.859375 -96.3125 44.09375 -98.4375 53.53125 -98.4375 C 60.03125 -98.4375 66.0625 -97.378906 71.625 -95.265625 C 77.195312 -93.160156 82.078125 -90.039062 86.265625 -85.90625 C 90.453125 -81.78125 93.703125 -76.625 96.015625 -70.4375 C 98.335938 -64.257812 99.5 -57.128906 99.5 -49.046875 L 99.5 -41.75 L 17.140625 -41.75 L 17.140625 -58.265625 L 86.75 -58.265625 L 74.53125 -53.96875 C 74.53125 -59.007812 73.738281 -63.375 72.15625 -67.0625 C 70.570312 -70.75 68.242188 -73.601562 65.171875 -75.625 C 62.097656 -77.644531 58.304688 -78.65625 53.796875 -78.65625 C 49.273438 -78.65625 45.429688 -77.628906 42.265625 -75.578125 C 39.109375 -73.535156 36.691406 -70.722656 35.015625 -67.140625 C 33.347656 -63.566406 32.515625 -59.46875 32.515625 -54.84375 L 32.515625 -43.25 C 32.515625 -37.789062 33.453125 -33.15625 35.328125 -29.34375 C 37.203125 -25.539062 39.851562 -22.65625 43.28125 -20.6875 C 46.707031 -18.726562 50.707031 -17.75 55.28125 -17.75 C 58.382812 -17.75 61.210938 -18.203125 63.765625 -19.109375 C 66.316406 -20.023438 68.484375 -21.347656 70.265625 -23.078125 C 72.054688 -24.804688 73.421875 -26.925781 74.359375 -29.4375 L 98.171875 -26.015625 C 96.648438 -20.390625 93.910156 -15.484375 89.953125 -11.296875 C 86.003906 -7.109375 81.054688 -3.851562 75.109375 -1.53125 C 69.160156 0.78125 62.375 1.9375 54.75 1.9375 Z M 54.75 1.9375 "/></g></g><g transform="translate(895.283161, 470.249996)"><g><path d="M 60.5625 -97.03125 L 60.5625 -76.90625 L 1.671875 -76.90625 L 1.671875 -97.03125 Z M 15.828125 -120.84375 L 42.015625 -120.84375 L 42.015625 -28.734375 C 42.015625 -25.628906 42.703125 -23.359375 44.078125 -21.921875 C 45.453125 -20.492188 47.753906 -19.78125 50.984375 -19.78125 C 52.148438 -19.78125 53.65625 -19.878906 55.5 -20.078125 C 57.34375 -20.285156 58.765625 -20.476562 59.765625 -20.65625 L 62.671875 -0.703125 C 60.035156 -0.0546875 57.28125 0.394531 54.40625 0.65625 C 51.53125 0.925781 48.75 1.0625 46.0625 1.0625 C 36.09375 1.0625 28.5625 -1.238281 23.46875 -5.84375 C 18.375 -10.445312 15.828125 -17.171875 15.828125 -26.015625 Z M 15.828125 -120.84375 "/></g></g><g transform="translate(961.289017, 470.249996)"><g/></g><g transform="translate(1003.037061, 470.249996)"><g><path d="M 11.34375 0 L 11.34375 -130.953125 L 38.234375 -130.953125 L 38.234375 -78.140625 L 95.015625 -78.140625 L 95.015625 -130.953125 L 121.90625 -130.953125 L 121.90625 0 L 95.015625 0 L 95.015625 -55.640625 L 38.234375 -55.640625 L 38.234375 0 Z M 11.34375 0 "/></g></g><g transform="translate(1136.279243, 470.249996)"><g><path d="M 44.296875 1.40625 C 37.554688 1.40625 31.664062 -0.0546875 26.625 -2.984375 C 21.59375 -5.921875 17.695312 -10.15625 14.9375 -15.6875 C 12.1875 -21.226562 10.8125 -27.835938 10.8125 -35.515625 L 10.8125 -97.03125 L 37 -97.03125 L 37 -40.171875 C 37 -34.015625 38.566406 -29.238281 41.703125 -25.84375 C 44.835938 -22.445312 49.160156 -20.75 54.671875 -20.75 C 58.359375 -20.75 61.625 -21.535156 64.46875 -23.109375 C 67.3125 -24.691406 69.535156 -27.019531 71.140625 -30.09375 C 72.753906 -33.175781 73.5625 -36.914062 73.5625 -41.3125 L 73.5625 -97.03125 L 99.84375 -97.03125 L 99.84375 0 L 74.796875 0 L 74.4375 -24.4375 L 76.640625 -24.4375 C 73.941406 -16.226562 69.941406 -9.867188 64.640625 -5.359375 C 59.335938 -0.847656 52.554688 1.40625 44.296875 1.40625 Z M 44.296875 1.40625 "/></g></g><g transform="translate(1246.845643, 470.249996)"><g><path d="M 65.390625 1.671875 C 60.347656 1.671875 55.992188 0.835938 52.328125 -0.828125 C 48.671875 -2.503906 45.640625 -4.644531 43.234375 -7.25 C 40.835938 -9.851562 38.96875 -12.5625 37.625 -15.375 L 36.5625 -15.375 L 36.5625 0 L 10.8125 0 L 10.8125 -130.953125 L 37 -130.953125 L 37 -81.296875 L 37.703125 -81.296875 C 39.109375 -84.109375 40.984375 -86.816406 43.328125 -89.421875 C 45.671875 -92.035156 48.660156 -94.191406 52.296875 -95.890625 C 55.929688 -97.585938 60.351562 -98.4375 65.5625 -98.4375 C 73.007812 -98.4375 79.734375 -96.515625 85.734375 -92.671875 C 91.742188 -88.835938 96.535156 -83.210938 100.109375 -75.796875 C 103.679688 -68.390625 105.46875 -59.265625 105.46875 -48.421875 C 105.46875 -37.765625 103.722656 -28.710938 100.234375 -21.265625 C 96.753906 -13.828125 91.992188 -8.144531 85.953125 -4.21875 C 79.921875 -0.289062 73.066406 1.671875 65.390625 1.671875 Z M 57.5625 -19.421875 C 62.132812 -19.421875 65.972656 -20.632812 69.078125 -23.0625 C 72.179688 -25.5 74.539062 -28.898438 76.15625 -33.265625 C 77.769531 -37.628906 78.578125 -42.710938 78.578125 -48.515625 C 78.578125 -54.253906 77.769531 -59.289062 76.15625 -63.625 C 74.539062 -67.96875 72.179688 -71.335938 69.078125 -73.734375 C 65.972656 -76.140625 62.132812 -77.34375 57.5625 -77.34375 C 53.113281 -77.34375 49.289062 -76.15625 46.09375 -73.78125 C 42.90625 -71.40625 40.472656 -68.066406 38.796875 -63.765625 C 37.128906 -59.460938 36.296875 -54.378906 36.296875 -48.515625 C 36.296875 -42.660156 37.144531 -37.5625 38.84375 -33.21875 C 40.539062 -28.882812 42.988281 -25.5 46.1875 -23.0625 C 49.382812 -20.632812 53.175781 -19.421875 57.5625 -19.421875 Z M 57.5625 -19.421875 "/></g></g></g><g clip-path="url(#aefd357316)"><g clip-path="url(#0c4e267b4e)"><g transform="matrix(1, 0, 0, 1, 309, 367)"><g clip-path="url(#02221f4ab7)"><g clip-path="url(#2c9ea10038)"><g clip-path="url(#04626d7887)"><path fill="#04448c" d="M 0.78125 75.496094 L 0.78125 0.519531 L 39.015625 0.519531 L 39.015625 75.496094 Z M 0.78125 75.496094 " fill-opacity="1" fill-rule="nonzero"/></g></g></g></g></g></g><g clip-path="url(#aff9bed0fa)"><g clip-path="url(#42b9d31890)"><g transform="matrix(1, 0, 0, 1, 80, 367)"><g clip-path="url(#a1db2e6207)"><g clip-path="url(#313c108dfd)"><g clip-path="url(#8ac49d476b)"><path fill="#04448c" d="M 39.230469 0.496094 L 39.230469 75.472656 L 0.996094 75.472656 L 0.996094 0.496094 Z M 39.230469 0.496094 " fill-opacity="1" fill-rule="nonzero"/></g></g></g></g></g></g></svg>