<svg xmlns="http://www.w3.org/2000/svg" xmlns:xlink="http://www.w3.org/1999/xlink" zoomAndPan="magnify" preserveAspectRatio="xMidYMid meet" version="1.0" viewBox="58.49 271.49 1305 267.02"><defs><g/><clipPath id="c7ad7e8ef3"><path d="M 58.992188 271.492188 L 326.003906 271.492188 L 326.003906 538.507812 L 58.992188 538.507812 Z M 58.992188 271.492188 " clip-rule="nonzero"/></clipPath><clipPath id="5544c36b63"><path d="M 326.003906 301.492188 L 326.003906 508.507812 C 326.003906 525.074219 312.574219 538.507812 296.003906 538.507812 L 88.992188 538.507812 C 72.421875 538.507812 58.992188 525.074219 58.992188 508.507812 L 58.992188 301.492188 C 58.992188 284.925781 72.421875 271.492188 88.992188 271.492188 L 296.003906 271.492188 C 312.574219 271.492188 326.003906 284.925781 326.003906 301.492188 Z M 326.003906 301.492188 " clip-rule="nonzero"/></clipPath><clipPath id="eabac0c91a"><path d="M 0.992188 0.492188 L 268.003906 0.492188 L 268.003906 267.507812 L 0.992188 267.507812 Z M 0.992188 0.492188 " clip-rule="nonzero"/></clipPath><clipPath id="609f3749fb"><path d="M 268.003906 30.492188 L 268.003906 237.507812 C 268.003906 254.074219 254.574219 267.507812 238.003906 267.507812 L 30.992188 267.507812 C 14.421875 267.507812 0.992188 254.074219 0.992188 237.507812 L 0.992188 30.492188 C 0.992188 13.925781 14.421875 0.492188 30.992188 0.492188 L 238.003906 0.492188 C 254.574219 0.492188 268.003906 13.925781 268.003906 30.492188 Z M 268.003906 30.492188 " clip-rule="nonzero"/></clipPath><clipPath id="349c5e2abc"><rect x="0" width="269" y="0" height="268"/></clipPath><clipPath id="7289aa9601"><path d="M 58.492188 372.953125 L 91.167969 372.953125 L 91.167969 437.15625 L 58.492188 437.15625 Z M 58.492188 372.953125 " clip-rule="nonzero"/></clipPath><clipPath id="5cf6c66b12"><path d="M 58.492188 437.046875 C 76.289062 437.046875 91.167969 422.457031 91.167969 405 C 91.167969 387.542969 76.289062 372.953125 58.492188 372.953125 Z M 58.492188 437.046875 " clip-rule="nonzero"/></clipPath><clipPath id="38f6fa4842"><path d="M 0.492188 0.953125 L 33.167969 0.953125 L 33.167969 65.15625 L 0.492188 65.15625 Z M 0.492188 0.953125 " clip-rule="nonzero"/></clipPath><clipPath id="029f776a03"><path d="M 0.492188 65.046875 C 18.289062 65.046875 33.167969 50.457031 33.167969 33 C 33.167969 15.542969 18.289062 0.953125 0.492188 0.953125 Z M 0.492188 65.046875 " clip-rule="nonzero"/></clipPath><clipPath id="1aebb4b017"><rect x="0" width="34" y="0" height="66"/></clipPath><clipPath id="ca1d7cad56"><path d="M 293.824219 372.839844 L 326.5 372.839844 L 326.5 437.042969 L 293.824219 437.042969 Z M 293.824219 372.839844 " clip-rule="nonzero"/></clipPath><clipPath id="9e2aea4431"><path d="M 326.5 372.945312 C 308.703125 372.945312 293.824219 387.539062 293.824219 404.996094 C 293.824219 422.449219 308.703125 437.042969 326.5 437.042969 Z M 326.5 372.945312 " clip-rule="nonzero"/></clipPath><clipPath id="06ccef542c"><path d="M 0.824219 0.839844 L 33.5 0.839844 L 33.5 65.042969 L 0.824219 65.042969 Z M 0.824219 0.839844 " clip-rule="nonzero"/></clipPath><clipPath id="3c5cdac3b1"><path d="M 33.5 0.945312 C 15.703125 0.945312 0.824219 15.539062 0.824219 32.996094 C 0.824219 50.449219 15.703125 65.042969 33.5 65.042969 Z M 33.5 0.945312 " clip-rule="nonzero"/></clipPath><clipPath id="a1e951e07c"><rect x="0" width="34" y="0" height="66"/></clipPath><clipPath id="8564b8232a"><rect x="0" width="143" y="0" height="260"/></clipPath></defs><g clip-path="url(#c7ad7e8ef3)"><g clip-path="url(#5544c36b63)"><g transform="matrix(1, 0, 0, 1, 58, 271)"><g clip-path="url(#349c5e2abc)"><g clip-path="url(#eabac0c91a)"><g clip-path="url(#609f3749fb)"><path fill="#ffffff" d="M 0.992188 0.492188 L 268.003906 0.492188 L 268.003906 267.507812 L 0.992188 267.507812 Z M 0.992188 0.492188 " fill-opacity="1" fill-rule="nonzero"/></g></g></g></g></g></g><g clip-path="url(#7289aa9601)"><g clip-path="url(#5cf6c66b12)"><g transform="matrix(1, 0, 0, 1, 58, 372)"><g clip-path="url(#1aebb4b017)"><g clip-path="url(#38f6fa4842)"><g clip-path="url(#029f776a03)"><path fill="#04448c" d="M 33.167969 0.953125 L 33.167969 65.027344 L 0.492188 65.027344 L 0.492188 0.953125 Z M 33.167969 0.953125 " fill-opacity="1" fill-rule="nonzero"/></g></g></g></g></g></g><g clip-path="url(#ca1d7cad56)"><g clip-path="url(#9e2aea4431)"><g transform="matrix(1, 0, 0, 1, 293, 372)"><g clip-path="url(#a1e951e07c)"><g clip-path="url(#06ccef542c)"><g clip-path="url(#3c5cdac3b1)"><path fill="#04448c" d="M 0.824219 65.042969 L 0.824219 0.964844 L 33.5 0.964844 L 33.5 65.042969 Z M 0.824219 65.042969 " fill-opacity="1" fill-rule="nonzero"/></g></g></g></g></g></g><g transform="matrix(1, 0, 0, 1, 121, 275)"><g clip-path="url(#8564b8232a)"><g fill="#04448c" fill-opacity="1"><g transform="translate(0.922175, 207.449147)"><g><path d="M 7.09375 -128.734375 L 7.09375 -155.4375 L 133.953125 -155.4375 L 133.953125 -128.734375 L 86.59375 -128.734375 L 86.59375 0 L 54.671875 0 L 54.671875 -128.734375 Z M 7.09375 -128.734375 "/></g></g></g></g></g><g fill="#ffffff" fill-opacity="1"><g transform="translate(426.672681, 473.999996)"><g><path d="M 103.015625 -128.5 L 103.015625 -107.140625 L 65.921875 -107.140625 L 65.921875 0 L 40.609375 0 L 40.609375 -107.140625 L 3.515625 -107.140625 L 3.515625 -128.5 Z M 103.015625 -128.5 "/></g></g></g><g fill="#ffffff" fill-opacity="1"><g transform="translate(530.998848, 473.999996)"><g><path d="M 26.109375 -108.546875 C 21.710938 -108.546875 18.132812 -109.878906 15.375 -112.546875 C 12.625 -115.210938 11.25 -118.65625 11.25 -122.875 C 11.25 -127.03125 12.625 -130.441406 15.375 -133.109375 C 18.132812 -135.773438 21.710938 -137.109375 26.109375 -137.109375 C 29.035156 -137.109375 31.640625 -136.492188 33.921875 -135.265625 C 36.210938 -134.035156 37.988281 -132.347656 39.25 -130.203125 C 40.507812 -128.066406 41.140625 -125.625 41.140625 -122.875 C 41.140625 -120.113281 40.507812 -117.648438 39.25 -115.484375 C 37.988281 -113.316406 36.210938 -111.617188 33.921875 -110.390625 C 31.640625 -109.160156 29.035156 -108.546875 26.109375 -108.546875 Z M 13.96875 0 L 13.96875 -96.9375 L 38.328125 -96.9375 L 38.328125 0 Z M 13.96875 0 "/></g></g><g transform="translate(583.205876, 473.999996)"><g><path d="M 56.515625 1.84375 C 47.140625 1.84375 38.847656 -0.101562 31.640625 -4 C 24.429688 -7.894531 18.804688 -13.617188 14.765625 -21.171875 C 10.722656 -28.734375 8.703125 -37.816406 8.703125 -48.421875 C 8.703125 -59.085938 10.722656 -68.195312 14.765625 -75.75 C 18.804688 -83.3125 24.398438 -89.039062 31.546875 -92.9375 C 38.703125 -96.84375 46.878906 -98.796875 56.078125 -98.796875 C 76.523438 -98.796875 89.617188 -91.378906 95.359375 -76.546875 L 78.65625 -64.59375 L 76.8125 -64.59375 C 74.820312 -69.164062 72.226562 -72.566406 69.03125 -74.796875 C 65.84375 -77.023438 61.523438 -78.140625 56.078125 -78.140625 C 49.046875 -78.140625 43.566406 -75.707031 39.640625 -70.84375 C 35.710938 -65.976562 33.75 -58.503906 33.75 -48.421875 C 33.75 -38.460938 35.738281 -31.035156 39.71875 -26.140625 C 43.707031 -21.253906 49.304688 -18.8125 56.515625 -18.8125 C 61.785156 -18.8125 66.25 -20.226562 69.90625 -23.0625 C 73.570312 -25.90625 76.195312 -29.992188 77.78125 -35.328125 L 79.625 -35.515625 L 96.9375 -26.015625 C 94.476562 -17.816406 89.921875 -11.125 83.265625 -5.9375 C 76.617188 -0.75 67.703125 1.84375 56.515625 1.84375 Z M 56.515625 1.84375 "/></g></g><g transform="translate(683.137511, 473.999996)"><g><path d="M 13.96875 0 L 13.96875 -135.875 L 38.328125 -135.875 L 38.328125 -60.46875 L 40.6875 -60.46875 L 68.734375 -96.9375 L 93.421875 -96.9375 L 93.421875 -94.921875 L 60.46875 -52.390625 L 97.125 -2.203125 L 97.125 0 L 71.453125 0 L 40.6875 -40.875 L 38.328125 -40.875 L 38.328125 0 Z M 13.96875 0 "/></g></g></g><g fill="#ffffff" fill-opacity="1"><g transform="translate(778.93829, 473.999996)"><g><path d="M 95.796875 -42.984375 L 33.484375 -42.984375 C 34.191406 -34.546875 36.59375 -28.40625 40.6875 -24.5625 C 44.789062 -20.726562 50.390625 -18.8125 57.484375 -18.8125 C 63.046875 -18.8125 67.554688 -19.847656 71.015625 -21.921875 C 74.472656 -24.003906 77.253906 -27.15625 79.359375 -31.375 L 81.21875 -31.375 L 97.390625 -21 C 94.222656 -14.207031 89.445312 -8.703125 83.0625 -4.484375 C 76.675781 -0.265625 68.148438 1.84375 57.484375 1.84375 C 47.460938 1.84375 38.800781 -0.0546875 31.5 -3.859375 C 24.207031 -7.671875 18.582031 -13.34375 14.625 -20.875 C 10.675781 -28.40625 8.703125 -37.585938 8.703125 -48.421875 C 8.703125 -59.441406 10.78125 -68.726562 14.9375 -76.28125 C 19.101562 -83.84375 24.726562 -89.484375 31.8125 -93.203125 C 38.90625 -96.929688 46.875 -98.796875 55.71875 -98.796875 C 69.4375 -98.796875 79.941406 -95.160156 87.234375 -87.890625 C 94.523438 -80.628906 98.171875 -69.96875 98.171875 -55.90625 C 98.171875 -50.800781 97.992188 -46.84375 97.640625 -44.03125 Z M 74.890625 -58.71875 C 74.648438 -66.09375 72.929688 -71.460938 69.734375 -74.828125 C 66.546875 -78.203125 61.875 -79.890625 55.71875 -79.890625 C 43.414062 -79.890625 36.179688 -72.832031 34.015625 -58.71875 Z M 74.890625 -58.71875 "/></g></g><g transform="translate(884.319145, 473.999996)"><g><path d="M 66.890625 -23.109375 L 73.21875 -5.09375 C 70.582031 -2.925781 67.269531 -1.226562 63.28125 0 C 59.300781 1.226562 54.789062 1.84375 49.75 1.84375 C 39.257812 1.84375 31.289062 -1.007812 25.84375 -6.71875 C 20.394531 -12.4375 17.671875 -20.742188 17.671875 -31.640625 L 17.671875 -77.703125 L 2.90625 -77.703125 L 2.90625 -97.03125 L 17.671875 -97.03125 L 17.671875 -115.921875 L 42.015625 -119.890625 L 42.015625 -97.03125 L 69.515625 -97.03125 L 69.515625 -77.703125 L 42.015625 -77.703125 L 42.015625 -33.40625 C 42.015625 -28.59375 43.007812 -25.085938 45 -22.890625 C 46.988281 -20.691406 49.890625 -19.59375 53.703125 -19.59375 C 58.035156 -19.59375 61.816406 -20.765625 65.046875 -23.109375 Z M 66.890625 -23.109375 "/></g></g><g transform="translate(959.641406, 473.999996)"><g/></g><g transform="translate(1002.092575, 473.999996)"><g><path d="M 99.671875 -80.15625 L 99.671875 -128.5 L 124.984375 -128.5 L 124.984375 0 L 99.671875 0 L 99.671875 -58.53125 L 42.09375 -58.53125 L 42.09375 0 L 16.703125 0 L 16.703125 -128.5 L 42.09375 -128.5 L 42.09375 -80.15625 Z M 99.671875 -80.15625 "/></g></g><g transform="translate(1143.860147, 473.999996)"><g><path d="M 44.390625 1.84375 C 33.484375 1.84375 25.4375 -1.128906 20.25 -7.078125 C 15.070312 -13.023438 12.484375 -21.566406 12.484375 -32.703125 L 12.484375 -96.9375 L 36.828125 -96.9375 L 36.828125 -35.765625 C 36.828125 -29.847656 38.097656 -25.523438 40.640625 -22.796875 C 43.191406 -20.078125 47.132812 -18.71875 52.46875 -18.71875 C 59.207031 -18.71875 64.453125 -20.929688 68.203125 -25.359375 C 71.953125 -29.785156 73.828125 -36.742188 73.828125 -46.234375 L 73.828125 -96.9375 L 98.171875 -96.9375 L 98.171875 0 L 74.796875 0 L 74.796875 -14.234375 L 72.953125 -14.671875 C 69.847656 -9.109375 66.050781 -4.960938 61.5625 -2.234375 C 57.082031 0.484375 51.359375 1.84375 44.390625 1.84375 Z M 44.390625 1.84375 "/></g></g><g transform="translate(1256.00858, 473.999996)"><g><path d="M 67.765625 1.84375 C 55.398438 1.84375 46.203125 -2.785156 40.171875 -12.046875 L 38.328125 -11.6875 L 38.328125 0 L 13.96875 0 L 13.96875 -135.875 L 38.328125 -135.875 L 38.328125 -85.515625 L 40.171875 -85.171875 C 43.503906 -89.796875 47.441406 -93.222656 51.984375 -95.453125 C 56.523438 -97.679688 61.960938 -98.796875 68.296875 -98.796875 C 76.140625 -98.796875 82.988281 -96.945312 88.84375 -93.25 C 94.707031 -89.5625 99.28125 -83.953125 102.5625 -76.421875 C 105.84375 -68.890625 107.484375 -59.554688 107.484375 -48.421875 C 107.484375 -37.410156 105.785156 -28.140625 102.390625 -20.609375 C 98.992188 -13.078125 94.304688 -7.453125 88.328125 -3.734375 C 82.347656 -0.015625 75.492188 1.84375 67.765625 1.84375 Z M 60.375 -18.8125 C 67.53125 -18.8125 72.984375 -21.195312 76.734375 -25.96875 C 80.484375 -30.75 82.359375 -38.234375 82.359375 -48.421875 C 82.359375 -58.679688 80.484375 -66.195312 76.734375 -70.96875 C 72.984375 -75.75 67.53125 -78.140625 60.375 -78.140625 C 53.519531 -78.140625 48.085938 -75.675781 44.078125 -70.75 C 40.066406 -65.832031 38.0625 -58.390625 38.0625 -48.421875 C 38.0625 -38.460938 40.066406 -31.035156 44.078125 -26.140625 C 48.085938 -21.253906 53.519531 -18.8125 60.375 -18.8125 Z M 60.375 -18.8125 "/></g></g></g></svg>