<svg xmlns="http://www.w3.org/2000/svg" version="1.1" xmlns:xlink="http://www.w3.org/1999/xlink" width="1000" height="1000"><metadata><rdf:RDF xmlns:rdf="http://www.w3.org/1999/02/22-rdf-syntax-ns#" xmlns:dc="http://purl.org/dc/elements/1.1/"><rdf:Description><dc:creator>RealFaviconGenerator</dc:creator><dc:source>https://realfavicongenerator.net</dc:source></rdf:Description></rdf:RDF></metadata><style>
    #light-icon {
      display: inline;
    }
    #dark-icon {
      display: none;
    }

    @media (prefers-color-scheme: dark) {
      #light-icon {
        display: none;
      }
      #dark-icon {
        display: inline;
      }
    }
  </style><g id="light-icon"><svg xmlns="http://www.w3.org/2000/svg" version="1.1" xmlns:xlink="http://www.w3.org/1999/xlink" width="1000" height="1000"><g><g transform="matrix(2.667164537380311,0,0,2.667164537380311,0,0.01333582268682676)"><svg xmlns="http://www.w3.org/2000/svg" version="1" xmlns:xlink="http://www.w3.org/1999/xlink" zoomAndPan="magnify" preserveAspectRatio="xMidYMid meet" viewBox="187.54 187.54 374.93 374.92" width="374.93" height="374.92"><defs><g></g><clipPath id="20d923deaf"><path d="M 187.539062 187.539062 L 562.460938 187.539062 L 562.460938 562.460938 L 187.539062 562.460938 Z M 187.539062 187.539062 " clip-rule="nonzero"></path></clipPath><clipPath id="50b447be9f"><path d="M 562.460938 217.539062 L 562.460938 532.460938 C 562.460938 549.03125 549.03125 562.460938 532.460938 562.460938 L 217.539062 562.460938 C 200.96875 562.460938 187.539062 549.03125 187.539062 532.460938 L 187.539062 217.539062 C 187.539062 200.96875 200.96875 187.539062 217.539062 187.539062 L 532.460938 187.539062 C 549.03125 187.539062 562.460938 200.96875 562.460938 217.539062 Z M 562.460938 217.539062 " clip-rule="nonzero"></path></clipPath><clipPath id="49669662ed"><path d="M 0.539062 0.539062 L 375.460938 0.539062 L 375.460938 375.460938 L 0.539062 375.460938 Z M 0.539062 0.539062 " clip-rule="nonzero"></path></clipPath><clipPath id="9fd33495b2"><path d="M 375.460938 30.539062 L 375.460938 345.460938 C 375.460938 362.03125 362.03125 375.460938 345.460938 375.460938 L 30.539062 375.460938 C 13.96875 375.460938 0.539062 362.03125 0.539062 345.460938 L 0.539062 30.539062 C 0.539062 13.96875 13.96875 0.539062 30.539062 0.539062 L 345.460938 0.539062 C 362.03125 0.539062 375.460938 13.96875 375.460938 30.539062 Z M 375.460938 30.539062 " clip-rule="nonzero"></path></clipPath><clipPath id="6bf4632bcb"><rect x="0" width="376" y="0" height="376"></rect></clipPath><clipPath id="6760703722"><path d="M 187.535156 330 L 233.417969 330 L 233.417969 420 L 187.535156 420 Z M 187.535156 330 " clip-rule="nonzero"></path></clipPath><clipPath id="e68093f5a3"><path d="M 187.535156 420 C 212.527344 420 233.417969 399.507812 233.417969 375 C 233.417969 350.488281 212.527344 330 187.535156 330 Z M 187.535156 420 " clip-rule="nonzero"></path></clipPath><clipPath id="bf5fe544e2"><path d="M 0.535156 0 L 46.417969 0 L 46.417969 90 L 0.535156 90 Z M 0.535156 0 " clip-rule="nonzero"></path></clipPath><clipPath id="9a3eac34b6"><path d="M 0.535156 90 C 25.527344 90 46.417969 69.507812 46.417969 45 C 46.417969 20.488281 25.527344 0 0.535156 0 Z M 0.535156 90 " clip-rule="nonzero"></path></clipPath><clipPath id="2d6151c935"><rect x="0" width="47" y="0" height="90"></rect></clipPath><clipPath id="dc8bc89544"><path d="M 516.582031 330 L 562.464844 330 L 562.464844 420 L 516.582031 420 Z M 516.582031 330 " clip-rule="nonzero"></path></clipPath><clipPath id="019db0a554"><path d="M 562.464844 330 C 537.472656 330 516.582031 350.488281 516.582031 375 C 516.582031 399.507812 537.472656 420 562.464844 420 Z M 562.464844 330 " clip-rule="nonzero"></path></clipPath><clipPath id="71be633776"><path d="M 0.582031 0 L 46.464844 0 L 46.464844 90 L 0.582031 90 Z M 0.582031 0 " clip-rule="nonzero"></path></clipPath><clipPath id="d48cf090bc"><path d="M 46.464844 0 C 21.472656 0 0.582031 20.488281 0.582031 45 C 0.582031 69.507812 21.472656 90 46.464844 90 Z M 46.464844 0 " clip-rule="nonzero"></path></clipPath><clipPath id="c83c3c49e1"><rect x="0" width="47" y="0" height="90"></rect></clipPath></defs><g clip-path="url(#20d923deaf)"><g clip-path="url(#50b447be9f)"><g transform="matrix(1, 0, 0, 1, 187, 187)"><g clip-path="url(#6bf4632bcb)"><g clip-path="url(#49669662ed)"><g clip-path="url(#9fd33495b2)"><path fill="#04448c" d="M 0.539062 0.539062 L 375.460938 0.539062 L 375.460938 375.460938 L 0.539062 375.460938 Z M 0.539062 0.539062 " fill-opacity="1" fill-rule="nonzero"></path></g></g></g></g></g></g><g clip-path="url(#6760703722)"><g clip-path="url(#e68093f5a3)"><g transform="matrix(1, 0, 0, 1, 187, 330)"><g clip-path="url(#2d6151c935)"><g clip-path="url(#bf5fe544e2)"><g clip-path="url(#9a3eac34b6)"><path fill="#ffffff" d="M 46.417969 0 L 46.417969 89.96875 L 0.535156 89.96875 L 0.535156 0 Z M 46.417969 0 " fill-opacity="1" fill-rule="nonzero"></path></g></g></g></g></g></g><g clip-path="url(#dc8bc89544)"><g clip-path="url(#019db0a554)"><g transform="matrix(1, 0, 0, 1, 516, 330)"><g clip-path="url(#c83c3c49e1)"><g clip-path="url(#71be633776)"><g clip-path="url(#d48cf090bc)"><path fill="#ffffff" d="M 0.582031 90 L 0.582031 0.0273438 L 46.464844 0.0273438 L 46.464844 90 Z M 0.582031 90 " fill-opacity="1" fill-rule="nonzero"></path></g></g></g></g></g></g><g fill="#ffffff" fill-opacity="1"><g transform="translate(275.90038, 483.749996)"><g><path d="M 9.96875 -180.765625 L 9.96875 -218.265625 L 188.09375 -218.265625 L 188.09375 -180.765625 L 121.578125 -180.765625 L 121.578125 0 L 76.765625 0 L 76.765625 -180.765625 Z M 9.96875 -180.765625 "></path></g></g></g></svg></g></g></svg></g><g id="dark-icon"><svg xmlns="http://www.w3.org/2000/svg" version="1.1" xmlns:xlink="http://www.w3.org/1999/xlink" width="1000" height="1000"><g><g transform="matrix(2.667164537380311,0,0,2.667164537380311,0,0.01333582268682676)"><svg xmlns="http://www.w3.org/2000/svg" version="1" xmlns:xlink="http://www.w3.org/1999/xlink" zoomAndPan="magnify" preserveAspectRatio="xMidYMid meet" viewBox="187.54 187.54 374.93 374.92" width="374.93" height="374.92"><defs><g></g><clipPath id="d86b661b26"><path d="M 187.539062 187.539062 L 562.460938 187.539062 L 562.460938 562.460938 L 187.539062 562.460938 Z M 187.539062 187.539062 " clip-rule="nonzero"></path></clipPath><clipPath id="196d9c51bd"><path d="M 562.460938 217.539062 L 562.460938 532.460938 C 562.460938 549.03125 549.03125 562.460938 532.460938 562.460938 L 217.539062 562.460938 C 200.96875 562.460938 187.539062 549.03125 187.539062 532.460938 L 187.539062 217.539062 C 187.539062 200.96875 200.96875 187.539062 217.539062 187.539062 L 532.460938 187.539062 C 549.03125 187.539062 562.460938 200.96875 562.460938 217.539062 Z M 562.460938 217.539062 " clip-rule="nonzero"></path></clipPath><clipPath id="eb88fd6aac"><path d="M 0.539062 0.539062 L 375.460938 0.539062 L 375.460938 375.460938 L 0.539062 375.460938 Z M 0.539062 0.539062 " clip-rule="nonzero"></path></clipPath><clipPath id="726da9bfc5"><path d="M 375.460938 30.539062 L 375.460938 345.460938 C 375.460938 362.03125 362.03125 375.460938 345.460938 375.460938 L 30.539062 375.460938 C 13.96875 375.460938 0.539062 362.03125 0.539062 345.460938 L 0.539062 30.539062 C 0.539062 13.96875 13.96875 0.539062 30.539062 0.539062 L 345.460938 0.539062 C 362.03125 0.539062 375.460938 13.96875 375.460938 30.539062 Z M 375.460938 30.539062 " clip-rule="nonzero"></path></clipPath><clipPath id="509497d6cd"><rect x="0" width="376" y="0" height="376"></rect></clipPath><clipPath id="2035c41d63"><path d="M 187.535156 330 L 233.417969 330 L 233.417969 420 L 187.535156 420 Z M 187.535156 330 " clip-rule="nonzero"></path></clipPath><clipPath id="b44f3caed0"><path d="M 187.535156 420 C 212.527344 420 233.417969 399.507812 233.417969 375 C 233.417969 350.488281 212.527344 330 187.535156 330 Z M 187.535156 420 " clip-rule="nonzero"></path></clipPath><clipPath id="6e5beecd02"><path d="M 0.535156 0 L 46.417969 0 L 46.417969 90 L 0.535156 90 Z M 0.535156 0 " clip-rule="nonzero"></path></clipPath><clipPath id="8792ba8272"><path d="M 0.535156 90 C 25.527344 90 46.417969 69.507812 46.417969 45 C 46.417969 20.488281 25.527344 0 0.535156 0 Z M 0.535156 90 " clip-rule="nonzero"></path></clipPath><clipPath id="d90966c5e8"><rect x="0" width="47" y="0" height="90"></rect></clipPath><clipPath id="794dce4120"><path d="M 516.582031 330 L 562.464844 330 L 562.464844 420 L 516.582031 420 Z M 516.582031 330 " clip-rule="nonzero"></path></clipPath><clipPath id="8d90453f6c"><path d="M 562.464844 330 C 537.472656 330 516.582031 350.488281 516.582031 375 C 516.582031 399.507812 537.472656 420 562.464844 420 Z M 562.464844 330 " clip-rule="nonzero"></path></clipPath><clipPath id="24033cf6b8"><path d="M 0.582031 0 L 46.464844 0 L 46.464844 90 L 0.582031 90 Z M 0.582031 0 " clip-rule="nonzero"></path></clipPath><clipPath id="d4af7a51ec"><path d="M 46.464844 0 C 21.472656 0 0.582031 20.488281 0.582031 45 C 0.582031 69.507812 21.472656 90 46.464844 90 Z M 46.464844 0 " clip-rule="nonzero"></path></clipPath><clipPath id="37ef5c9539"><rect x="0" width="47" y="0" height="90"></rect></clipPath></defs><g clip-path="url(#d86b661b26)"><g clip-path="url(#196d9c51bd)"><g transform="matrix(1, 0, 0, 1, 187, 187)"><g clip-path="url(#509497d6cd)"><g clip-path="url(#eb88fd6aac)"><g clip-path="url(#726da9bfc5)"><path fill="#ffffff" d="M 0.539062 0.539062 L 375.460938 0.539062 L 375.460938 375.460938 L 0.539062 375.460938 Z M 0.539062 0.539062 " fill-opacity="1" fill-rule="nonzero"></path></g></g></g></g></g></g><g clip-path="url(#2035c41d63)"><g clip-path="url(#b44f3caed0)"><g transform="matrix(1, 0, 0, 1, 187, 330)"><g clip-path="url(#d90966c5e8)"><g clip-path="url(#6e5beecd02)"><g clip-path="url(#8792ba8272)"><path fill="#04448c" d="M 46.417969 0 L 46.417969 89.96875 L 0.535156 89.96875 L 0.535156 0 Z M 46.417969 0 " fill-opacity="1" fill-rule="nonzero"></path></g></g></g></g></g></g><g clip-path="url(#794dce4120)"><g clip-path="url(#8d90453f6c)"><g transform="matrix(1, 0, 0, 1, 516, 330)"><g clip-path="url(#37ef5c9539)"><g clip-path="url(#24033cf6b8)"><g clip-path="url(#d4af7a51ec)"><path fill="#04448c" d="M 0.582031 90 L 0.582031 0.0273438 L 46.464844 0.0273438 L 46.464844 90 Z M 0.582031 90 " fill-opacity="1" fill-rule="nonzero"></path></g></g></g></g></g></g><g fill="#04448c" fill-opacity="1"><g transform="translate(275.90038, 483.749996)"><g><path d="M 9.96875 -180.765625 L 9.96875 -218.265625 L 188.09375 -218.265625 L 188.09375 -180.765625 L 121.578125 -180.765625 L 121.578125 0 L 76.765625 0 L 76.765625 -180.765625 Z M 9.96875 -180.765625 "></path></g></g></g></svg></g></g></svg></g></svg>